<svg width="1920" height="1080" viewBox="0 0 1920 1080" fill="none" xmlns="http://www.w3.org/2000/svg">
<g clip-path="url(#clip0_237_147)">
<rect width="1920" height="1080" fill="#DEDEDE"/>
<path opacity="0.25" d="M1786.36 387.426L1803.48 417.293L1786.17 447.047L1751.75 446.935L1734.63 417.068L1751.94 387.314L1786.36 387.426Z" stroke="#9B32EE" stroke-opacity="0.7"/>
<g opacity="0.25">
<path d="M1804.11 477.228L1786.52 507.482L1751.52 507.368L1734.11 477L1751.71 446.746L1786.71 446.861L1804.11 477.228Z" fill="#9B32EE" fill-opacity="0.65"/>
<path d="M1786.42 447.36L1803.54 477.226L1786.23 506.981L1751.81 506.869L1734.69 477.002L1752 447.247L1786.42 447.36Z" stroke="#9B32EE" stroke-opacity="0.8"/>
</g>
<path opacity="0.25" d="M1838.42 417.36L1855.54 447.226L1838.23 476.981L1803.81 476.869L1786.69 447.002L1804 417.247L1838.42 417.36Z" stroke="#9B32EE" stroke-opacity="0.9"/>
<g opacity="0.25">
<path d="M1908.11 417.228L1890.52 447.482L1855.52 447.368L1838.11 417L1855.71 386.746L1890.71 386.861L1908.11 417.228Z" fill="#9B32EE" fill-opacity="0.8"/>
<path d="M1890.42 387.36L1907.54 417.226L1890.23 446.981L1855.81 446.869L1838.69 417.002L1856 387.247L1890.42 387.36Z" stroke="#9B32EE" stroke-opacity="0.9"/>
</g>
<path opacity="0.25" d="M1890.42 447.36L1907.54 477.226L1890.23 506.981L1855.81 506.869L1838.69 477.002L1856 447.247L1890.42 447.36Z" stroke="#9B32EE" stroke-opacity="0.9"/>
<path opacity="0.25" d="M1942.42 477.36L1959.54 507.226L1942.23 536.981L1907.81 536.869L1890.69 507.002L1908 477.247L1942.42 477.36Z" stroke="#9B32EE"/>
<path opacity="0.25" d="M1942.42 417.36L1959.54 447.226L1942.23 476.981L1907.81 476.869L1890.69 447.002L1908 417.247L1942.42 417.36Z" stroke="#9B32EE"/>
<path opacity="0.25" d="M1838.42 477.36L1855.54 507.226L1838.23 536.981L1803.81 536.869L1786.69 507.002L1804 477.247L1838.42 477.36Z" stroke="#9B32EE" stroke-opacity="0.9"/>
<path opacity="0.25" d="M1785.42 507.36L1802.54 537.226L1785.23 566.981L1750.81 566.869L1733.69 537.002L1751 507.247L1785.42 507.36Z" stroke="#9B32EE" stroke-opacity="0.55"/>
<g opacity="0.25">
<path d="M1908.11 537.228L1890.52 567.482L1855.52 567.368L1838.11 537L1855.71 506.746L1890.71 506.861L1908.11 537.228Z" fill="#9B32EE" fill-opacity="0.7"/>
<path d="M1890.42 507.36L1907.54 537.226L1890.23 566.981L1855.81 566.869L1838.69 537.002L1856 507.247L1890.42 507.36Z" stroke="#9B32EE" stroke-opacity="0.9"/>
</g>
<path opacity="0.25" d="M1734.42 477.36L1751.54 507.226L1734.23 536.981L1699.81 536.869L1682.69 507.002L1700 477.247L1734.42 477.36Z" stroke="#9B32EE" stroke-opacity="0.55"/>
<g opacity="0.25">
<path d="M1751.95 447.117L1734.35 477.371L1699.35 477.257L1681.95 446.889L1699.55 416.635L1734.55 416.749L1751.95 447.117Z" fill="#9B32EE" fill-opacity="0.4"/>
<path d="M1734.26 417.248L1751.37 447.115L1734.06 476.87L1699.64 476.758L1682.52 446.891L1699.83 417.136L1734.26 417.248Z" stroke="#9B32EE" stroke-opacity="0.7"/>
</g>
<path opacity="0.25" d="M1936.36 1003.36L1953.48 1033.23L1936.17 1062.98L1901.75 1062.87L1884.63 1033L1901.94 1003.25L1936.36 1003.36Z" stroke="#9B32EE" stroke-opacity="0.85"/>
<path opacity="0.25" d="M1935.42 1063.29L1952.54 1093.16L1935.23 1122.91L1900.81 1122.8L1883.69 1092.94L1901 1063.18L1935.42 1063.29Z" stroke="#9B32EE"/>
<g opacity="0.25">
<path d="M1901.95 1063.05L1884.35 1093.3L1849.35 1093.19L1831.95 1062.82L1849.55 1032.57L1884.55 1032.68L1901.95 1063.05Z" fill="#9B32EE" fill-opacity="0.45"/>
<path d="M1884.26 1033.18L1901.37 1063.05L1884.06 1092.8L1849.64 1092.69L1832.52 1062.82L1849.83 1033.07L1884.26 1033.18Z" stroke="#9B32EE" stroke-opacity="0.75"/>
</g>
<path opacity="0.25" d="M1832.42 1003.36L1849.54 1033.23L1832.23 1062.98L1797.81 1062.87L1780.69 1033L1798 1003.25L1832.42 1003.36Z" stroke="#9B32EE" stroke-opacity="0.5"/>
<g opacity="0.25">
<path d="M1778 22L1808.31 39.5V74.5L1778 92L1747.69 74.5V39.5L1778 22Z" fill="#9B32EE" fill-opacity="0.7"/>
<path d="M1748.19 39.7887L1778 22.5774L1807.81 39.7887V74.2113L1778 91.4226L1748.19 74.2113V39.7887Z" stroke="#9B32EE" stroke-opacity="0.75"/>
</g>
<path opacity="0.25" d="M1688.19 38.7887L1718 21.5774L1747.81 38.7887V73.2113L1718 90.4226L1688.19 73.2113V38.7887Z" stroke="#9B32EE" stroke-opacity="0.6"/>
<path opacity="0.25" d="M1898.19 -11.2113L1928 -28.4226L1957.81 -11.2113V23.2113L1928 40.4226L1898.19 23.2113V-11.2113Z" fill="#9B32EE" fill-opacity="0.9" stroke="#9B32EE"/>
<path opacity="0.25" d="M1868.19 40.7887L1898 23.5774L1927.81 40.7887V75.2113L1898 92.4226L1868.19 75.2113V40.7887Z" stroke="#9B32EE" stroke-opacity="0.95"/>
<path opacity="0.25" d="M1838.19 -11.2113L1868 -28.4226L1897.81 -11.2113V23.2113L1868 40.4226L1838.19 23.2113V-11.2113Z" stroke="#9B32EE"/>
<g opacity="0.25">
<path d="M1838 23L1868.31 40.5V75.5L1838 93L1807.69 75.5V40.5L1838 23Z" fill="#9B32EE" fill-opacity="0.85"/>
<path d="M1808.19 40.7887L1838 23.5774L1867.81 40.7887V75.2113L1838 92.4226L1808.19 75.2113V40.7887Z" stroke="#9B32EE" stroke-opacity="0.8"/>
</g>
<path opacity="0.25" d="M1778.19 91.7887L1808 74.5774L1837.81 91.7887V126.211L1808 143.423L1778.19 126.211V91.7887Z" stroke="#9B32EE" stroke-opacity="0.6"/>
<path opacity="0.25" d="M1778.19 -11.2113L1808 -28.4226L1837.81 -11.2113V23.2113L1808 40.4226L1778.19 23.2113V-11.2113Z" stroke="#9B32EE"/>
<path opacity="0.25" d="M1718.19 -12.2113L1748 -29.4226L1777.81 -12.2113V22.2113L1748 39.4226L1718.19 22.2113V-12.2113Z" stroke="#9B32EE" stroke-opacity="0.95"/>
<g opacity="0.25">
<path d="M1688 -31L1718.31 -13.5V21.5L1688 39L1657.69 21.5V-13.5L1688 -31Z" fill="#9B32EE" fill-opacity="0.4"/>
<path d="M1658.19 -13.2113L1688 -30.4226L1717.81 -13.2113V21.2113L1688 38.4226L1658.19 21.2113V-13.2113Z" stroke="#9B32EE" stroke-opacity="0.8"/>
</g>
<path opacity="0.25" d="M1629.19 38.7887L1659 21.5774L1688.81 38.7887V73.2113L1659 90.4226L1629.19 73.2113V38.7887Z" stroke="#9B32EE" stroke-opacity="0.6"/>
<path opacity="0.25" d="M1599.19 -13.2113L1629 -30.4226L1658.81 -13.2113V21.2113L1629 38.4226L1599.19 21.2113V-13.2113Z" stroke="#9B32EE" stroke-opacity="0.75"/>
<g opacity="0.25">
<path d="M131 122L161.311 139.5V174.5L131 192L100.689 174.5V139.5L131 122Z" fill="#9B32EE" fill-opacity="0.8"/>
<path d="M101.189 139.789L131 122.577L160.811 139.789V174.211L131 191.423L101.189 174.211V139.789Z" stroke="#9B32EE" stroke-opacity="0.8"/>
</g>
<g opacity="0.25">
<path d="M101 174L131.311 191.5V226.5L101 244L70.6891 226.5V191.5L101 174Z" fill="#9B32EE" fill-opacity="0.55"/>
<path d="M71.1891 191.789L101 174.577L130.811 191.789V226.211L101 243.423L71.1891 226.211V191.789Z" stroke="#9B32EE" stroke-opacity="0.75"/>
</g>
<path opacity="0.25" d="M41.1891 139.789L71 122.577L100.811 139.789V174.211L71 191.423L41.1891 174.211V139.789Z" stroke="#9B32EE" stroke-opacity="0.85"/>
<path opacity="0.25" d="M101.189 36.7887L131 19.5774L160.811 36.7887V71.2113L131 88.4226L101.189 71.2113V36.7887Z" stroke="#9B32EE" stroke-opacity="0.95"/>
<path opacity="0.25" d="M71.1891 87.7887L101 70.5774L130.811 87.7887V122.211L101 139.423L71.1891 122.211V87.7887Z" stroke="#9B32EE" stroke-opacity="0.95"/>
<path opacity="0.25" d="M41.1891 36.7887L71 19.5774L100.811 36.7887V71.2113L71 88.4226L41.1891 71.2113V36.7887Z" stroke="#9B32EE"/>
<g opacity="0.25">
<path d="M220 70L250.311 87.5V122.5L220 140L189.689 122.5V87.5L220 70Z" fill="#9B32EE" fill-opacity="0.5"/>
<path d="M190.189 87.7887L220 70.5774L249.811 87.7887V122.211L220 139.423L190.189 122.211V87.7887Z" stroke="#9B32EE" stroke-opacity="0.8"/>
</g>
<g opacity="0.25">
<path d="M191 122L221.311 139.5V174.5L191 192L160.689 174.5V139.5L191 122Z" fill="#9B32EE" fill-opacity="0.5"/>
<path d="M161.189 139.789L191 122.577L220.811 139.789V174.211L191 191.423L161.189 174.211V139.789Z" stroke="#9B32EE" stroke-opacity="0.8"/>
</g>
<path opacity="0.25" d="M131.189 87.7887L161 70.5774L190.811 87.7887V122.211L161 139.423L131.189 122.211V87.7887Z" stroke="#9B32EE" stroke-opacity="0.85"/>
<path opacity="0.25" d="M191.189 191.789L221 174.577L250.811 191.789V226.211L221 243.423L191.189 226.211V191.789Z" stroke="#9B32EE" stroke-opacity="0.25"/>
<path opacity="0.25" d="M161.189 242.789L191 225.577L220.811 242.789V277.211L191 294.423L161.189 277.211V242.789Z" stroke="#9B32EE" stroke-opacity="0.5"/>
<path opacity="0.25" d="M131.189 191.789L161 174.577L190.811 191.789V226.211L161 243.423L131.189 226.211V191.789Z" stroke="#9B32EE" stroke-opacity="0.7"/>
<g opacity="0.25">
<path d="M310 122L340.311 139.5V174.5L310 192L279.689 174.5V139.5L310 122Z" fill="#9B32EE" fill-opacity="0.25"/>
<path d="M280.189 139.789L310 122.577L339.811 139.789V174.211L310 191.423L280.189 174.211V139.789Z" stroke="#9B32EE" stroke-opacity="0.25"/>
</g>
<path opacity="0.25" d="M310.189 87.7887L340 70.5774L369.811 87.7887V122.211L340 139.423L310.189 122.211V87.7887Z" stroke="#9B32EE" stroke-opacity="0.25"/>
<path opacity="0.25" d="M102.189 346.789L132 329.577L161.811 346.789V381.211L132 398.423L102.189 381.211V346.789Z" stroke="#9B32EE" stroke-opacity="0.5"/>
<g opacity="0.25">
<path d="M371 18L401.311 35.5V70.5L371 88L340.689 70.5V35.5L371 18Z" fill="#9B32EE" fill-opacity="0.25"/>
<path d="M341.189 35.7887L371 18.5774L400.811 35.7887V70.2113L371 87.4226L341.189 70.2113V35.7887Z" stroke="#9B32EE" stroke-opacity="0.25"/>
</g>
<path opacity="0.25" d="M250.189 191.789L280 174.577L309.811 191.789V226.211L280 243.423L250.189 226.211V191.789Z" stroke="#9B32EE" stroke-opacity="0.5"/>
<path opacity="0.25" d="M220.189 139.789L250 122.577L279.811 139.789V174.211L250 191.423L220.189 174.211V139.789Z" stroke="#9B32EE" stroke-opacity="0.7"/>
<g opacity="0.25">
<path d="M280 70L310.311 87.5V122.5L280 140L249.689 122.5V87.5L280 70Z" fill="#9B32EE" fill-opacity="0.5"/>
<path d="M250.189 87.7887L280 70.5774L309.811 87.7887V122.211L280 139.423L250.189 122.211V87.7887Z" stroke="#9B32EE" stroke-opacity="0.75"/>
</g>
<path opacity="0.25" d="M340.189 139.789L370 122.577L399.811 139.789V174.211L370 191.423L340.189 174.211V139.789Z" stroke="#9B32EE" stroke-opacity="0.5"/>
<g opacity="0.25">
<path d="M280 -33L310.311 -15.5V19.5L280 37L249.689 19.5V-15.5L280 -33Z" fill="#9B32EE" fill-opacity="0.5"/>
<path d="M250.189 -15.2113L280 -32.4226L309.811 -15.2113V19.2113L280 36.4226L250.189 19.2113V-15.2113Z" stroke="#9B32EE" stroke-opacity="0.8"/>
</g>
<path opacity="0.25" d="M281.189 35.7887L311 18.5774L340.811 35.7887V70.2113L311 87.4226L281.189 70.2113V35.7887Z" stroke="#9B32EE" stroke-opacity="0.7"/>
<path opacity="0.25" d="M221.189 36.7887L251 19.5774L280.811 36.7887V71.2113L251 88.4226L221.189 71.2113V36.7887Z" stroke="#9B32EE" stroke-opacity="0.75"/>
<path opacity="0.25" d="M191.189 -15.2113L221 -32.4226L250.811 -15.2113V19.2113L221 36.4226L191.189 19.2113V-15.2113Z" stroke="#9B32EE" stroke-opacity="0.85"/>
<g opacity="0.25">
<path d="M191 18L221.311 35.5V70.5L191 88L160.689 70.5V35.5L191 18Z" fill="#9B32EE" fill-opacity="0.5"/>
<path d="M161.189 35.7887L191 18.5774L220.811 35.7887V70.2113L191 87.4226L161.189 70.2113V35.7887Z" stroke="#9B32EE" stroke-opacity="0.85"/>
</g>
<path opacity="0.25" d="M131.189 -15.2113L161 -32.4226L190.811 -15.2113V19.2113L161 36.4226L131.189 19.2113V-15.2113Z" stroke="#9B32EE" stroke-opacity="0.95"/>
<path opacity="0.25" d="M101.189 243.789L131 226.577L160.811 243.789V278.211L131 295.423L101.189 278.211V243.789Z" stroke="#9B32EE" stroke-opacity="0.25"/>
<g opacity="0.25">
<path d="M101 278L131.311 295.5V330.5L101 348L70.6891 330.5V295.5L101 278Z" fill="#9B32EE" fill-opacity="0.25"/>
<path d="M71.1891 295.789L101 278.577L130.811 295.789V330.211L101 347.423L71.1891 330.211V295.789Z" stroke="#9B32EE" stroke-opacity="0.25"/>
</g>
<path opacity="0.25" d="M41.1891 243.789L71 226.577L100.811 243.789V278.211L71 295.423L41.1891 278.211V243.789Z" stroke="#9B32EE" stroke-opacity="0.7"/>
<g opacity="0.25">
<path d="M41 174L71.3109 191.5V226.5L41 244L10.6891 226.5V191.5L41 174Z" fill="#9B32EE" fill-opacity="0.75"/>
<path d="M11.1891 191.789L41 174.577L70.8109 191.789V226.211L41 243.423L11.1891 226.211V191.789Z" stroke="#9B32EE" stroke-opacity="0.8"/>
</g>
<path opacity="0.25" d="M-17.8109 243.789L12 226.577L41.8109 243.789V278.211L12 295.423L-17.8109 278.211V243.789Z" stroke="#9B32EE" stroke-opacity="0.7"/>
<path opacity="0.25" d="M-48.8109 192.789L-19 175.577L10.8109 192.789V227.211L-19 244.423L-48.8109 227.211V192.789Z" stroke="#9B32EE"/>
<path opacity="0.25" d="M71.1891 -15.2113L101 -32.4226L130.811 -15.2113V19.2113L101 36.4226L71.1891 19.2113V-15.2113Z" fill="#9B32EE" fill-opacity="0.85" stroke="#9B32EE"/>
<path opacity="0.25" d="M11.1891 -15.2113L41 -32.4226L70.8109 -15.2113V19.2113L41 36.4226L11.1891 19.2113V-15.2113Z" stroke="#9B32EE"/>
<path opacity="0.25" d="M-18.8109 36.7887L11 19.5774L40.8109 36.7887V71.2113L11 88.4226L-18.8109 71.2113V36.7887Z" stroke="#9B32EE"/>
<path opacity="0.25" d="M-48.8109 -15.2113L-19 -32.4226L10.8109 -15.2113V19.2113L-19 36.4226L-48.8109 19.2113V-15.2113Z" stroke="#9B32EE"/>
<g opacity="0.25">
<path d="M41 71L71.3109 88.5V123.5L41 141L10.6891 123.5V88.5L41 71Z" fill="#9B32EE" fill-opacity="0.85"/>
<path d="M11.1891 88.7887L41 71.5774L70.8109 88.7887V123.211L41 140.423L11.1891 123.211V88.7887Z" stroke="#9B32EE" stroke-opacity="0.95"/>
</g>
<path opacity="0.25" d="M-18.8109 140.789L11 123.577L40.8109 140.789V175.211L11 192.423L-18.8109 175.211V140.789Z" stroke="#9B32EE" stroke-opacity="0.95"/>
<path opacity="0.25" d="M-48.8109 88.7887L-19 71.5774L10.8109 88.7887V123.211L-19 140.423L-48.8109 123.211V88.7887Z" stroke="#9B32EE"/>
<g opacity="0.25">
<path d="M371.254 1105.11L353.853 1074.74L371.452 1044.48L406.452 1044.6L423.853 1074.97L406.254 1105.22L371.254 1105.11Z" fill="#9B32EE" fill-opacity="0.7"/>
<path d="M405.967 1104.72L371.544 1104.61L354.43 1074.74L371.739 1044.99L406.161 1045.1L423.275 1074.96L405.967 1104.72Z" stroke="#9B32EE" stroke-opacity="0.85"/>
</g>
<path opacity="0.25" d="M549.592 1105.46L515.169 1105.35L498.055 1075.48L515.364 1045.73L549.786 1045.84L566.9 1075.71L549.592 1105.46Z" fill="#9B32EE" fill-opacity="0.9" stroke="#9B32EE"/>
<path opacity="0.25" d="M76.866 837.803L59.752 807.936L77.0604 778.181L111.483 778.293L128.597 808.16L111.289 837.915L76.866 837.803Z" stroke="#9B32EE" stroke-opacity="0.8"/>
<g opacity="0.25">
<path d="M59.1141 748L76.7128 717.747L111.713 717.861L129.114 748.228L111.515 778.482L76.5152 778.368L59.1141 748Z" fill="#9B32EE" fill-opacity="0.8"/>
<path d="M76.8055 777.869L59.6915 748.002L76.9999 718.247L111.422 718.36L128.536 748.227L111.228 777.981L76.8055 777.869Z" stroke="#9B32EE" stroke-opacity="0.8"/>
</g>
<path opacity="0.25" d="M24.8055 807.869L7.69145 778.002L24.9999 748.247L59.4223 748.36L76.5364 778.227L59.228 807.981L24.8055 807.869Z" stroke="#9B32EE" stroke-opacity="0.8"/>
<g opacity="0.25">
<path d="M-44.8859 808L-27.2872 777.747L7.71264 777.861L25.1137 808.228L7.51501 838.482L-27.4848 838.368L-44.8859 808Z" fill="#9B32EE" fill-opacity="0.9"/>
<path d="M-27.1945 837.869L-44.3085 808.002L-27.0001 778.247L7.42234 778.36L24.5364 808.227L7.22796 837.981L-27.1945 837.869Z" stroke="#9B32EE" stroke-opacity="0.9"/>
</g>
<path opacity="0.25" d="M-27.1945 777.869L-44.3085 748.002L-27.0001 718.247L7.42234 718.36L24.5364 748.227L7.22796 777.981L-27.1945 777.869Z" stroke="#9B32EE"/>
<path opacity="0.25" d="M24.8055 747.869L7.69145 718.002L24.9999 688.247L59.4223 688.36L76.5364 718.227L59.228 747.981L24.8055 747.869Z" stroke="#9B32EE" stroke-opacity="0.9"/>
<path opacity="0.25" d="M76.8055 717.869L59.6915 688.002L76.9999 658.247L111.422 658.36L128.536 688.227L111.228 717.981L76.8055 717.869Z" stroke="#9B32EE" stroke-opacity="0.85"/>
<g opacity="0.25">
<path d="M-44.8859 688L-27.2872 657.747L7.71264 657.861L25.1137 688.228L7.51501 718.482L-27.4848 718.368L-44.8859 688Z" fill="#9B32EE" fill-opacity="0.9"/>
<path d="M-27.1945 717.869L-44.3085 688.002L-27.0001 658.247L7.42234 658.36L24.5364 688.227L7.22796 717.981L-27.1945 717.869Z" stroke="#9B32EE" stroke-opacity="0.9"/>
</g>
<path opacity="0.25" d="M128.805 747.869L111.691 718.002L129 688.247L163.422 688.36L180.536 718.227L163.228 747.981L128.805 747.869Z" stroke="#9B32EE" stroke-opacity="0.85"/>
<path opacity="0.25" d="M76.8055 717.869L59.6915 688.002L76.9999 658.247L111.422 658.36L128.536 688.227L111.228 717.981L76.8055 717.869Z" stroke="#9B32EE" stroke-opacity="0.85"/>
<path opacity="0.25" d="M128.805 747.869L111.691 718.002L129 688.247L163.422 688.36L180.536 718.227L163.228 747.981L128.805 747.869Z" stroke="#9B32EE" stroke-opacity="0.85"/>
<g opacity="0.25">
<path d="M111.281 778.227L128.781 747.916L163.781 747.916L181.281 778.227L163.781 808.537L128.781 808.537L111.281 778.227Z" fill="#9B32EE" fill-opacity="0.7"/>
<path d="M129.07 808.037L111.859 778.227L129.07 748.416L163.493 748.416L180.704 778.227L163.493 808.037L129.07 808.037Z" stroke="#9B32EE" stroke-opacity="0.85"/>
</g>
</g>
<defs>
<clipPath id="clip0_237_147">
<rect width="1920" height="1080" fill="white"/>
</clipPath>
</defs>
</svg>
